<svg width="27" height="27" viewBox="0 0 27 27" fill="none" xmlns="http://www.w3.org/2000/svg">
<path d="M18.8159 6.70713C18.8062 6.42904 18.6864 6.1662 18.4829 5.97642C18.2794 5.78665 18.0088 5.68547 17.7307 5.69514L9.34033 5.98814C9.20101 5.99058 9.06357 6.02074 8.93602 6.07687C8.80848 6.133 8.6934 6.21396 8.59748 6.31505C8.50157 6.41613 8.42674 6.5353 8.37738 6.6656C8.32801 6.79591 8.30509 6.93475 8.30995 7.07401C8.31482 7.21327 8.34737 7.35016 8.4057 7.47671C8.46404 7.60326 8.54699 7.71692 8.64972 7.81106C8.75246 7.90521 8.87291 7.97795 9.00406 8.02504C9.1352 8.07214 9.27441 8.09264 9.41357 8.08536L15.2721 7.88077L5.7942 18.0446C5.60438 18.2482 5.5032 18.5188 5.51292 18.7969C5.52263 19.0751 5.64244 19.338 5.84599 19.5278C6.04954 19.7176 6.32016 19.8188 6.59831 19.8091C6.87646 19.7994 7.13936 19.6796 7.32917 19.476L16.8071 9.31216L17.0117 15.1707C17.0261 15.4455 17.1478 15.7037 17.3507 15.8896C17.5535 16.0755 17.8213 16.1743 18.0963 16.1647C18.3713 16.1551 18.6315 16.0378 18.8209 15.8382C19.0103 15.6386 19.1138 15.3726 19.1089 15.0975L18.8159 6.70713Z" fill="#458448"/>
</svg>
