<svg width="34" height="32" viewBox="0 0 34 32" fill="none" xmlns="http://www.w3.org/2000/svg">
<path d="M16.4493 24.0401H25.5293C25.8829 24.0596 26.2357 23.9895 26.554 23.8364C26.8723 23.6833 27.1456 23.4523 27.3477 23.1654C27.5499 22.8786 27.6741 22.5454 27.7087 22.1977C27.7433 21.85 27.6871 21.4994 27.5453 21.1792C27.0653 19.7481 25.152 18.0316 25.152 16.3427C25.152 12.594 25.152 11.6075 23.28 9.40304C22.6742 8.69346 21.9231 8.11834 21.076 7.71546L20.032 7.21564C19.8568 7.11133 19.7057 6.97201 19.5883 6.80665C19.471 6.64128 19.39 6.45352 19.3506 6.25544C19.2463 5.58779 18.8884 4.98428 18.3496 4.56733C17.8109 4.15037 17.1315 3.95119 16.4493 4.01017C15.7795 3.97049 15.1187 4.17855 14.596 4.59373C14.0733 5.00891 13.7263 5.60138 13.6226 6.25544C13.5756 6.46036 13.4836 6.65258 13.3529 6.81851C13.2223 6.98444 13.0563 7.12001 12.8666 7.21564L11.8226 7.71546C10.976 8.1185 10.2254 8.69361 9.61997 9.40304C7.7493 11.6075 7.7493 12.594 7.7493 16.3427C7.7493 18.0316 5.92264 19.5758 5.44264 21.0924C5.1533 22.0092 4.9933 24.0401 7.41597 24.0401H16.4493Z" stroke="white" stroke-width="1.5" stroke-linecap="round" stroke-linejoin="round"/>
<path d="M20.7999 24.0401C20.8113 24.6068 20.7066 25.1699 20.492 25.6958C20.2774 26.2216 19.9573 26.6992 19.551 27.1C19.1447 27.5008 18.6606 27.8166 18.1275 28.0283C17.5945 28.24 17.0237 28.3433 16.4492 28.332C15.8746 28.344 15.3034 28.2412 14.7702 28.0298C14.2369 27.8183 13.7525 27.5026 13.3461 27.1016C12.9398 26.7006 12.6199 26.2227 12.4057 25.6965C12.1915 25.1704 12.0875 24.6069 12.0999 24.0401" stroke="white" stroke-width="1.5" stroke-linecap="round" stroke-linejoin="round"/>
</svg>
